0
SECTION
2
HEADER
9
$INSUNITS
70
4
9
$ACADVER
1
AC1014
9
$HANDSEED
5
FFFF
0
ENDSEC
0
SECTION
2
TABLES
0
TABLE
2
VPORT
5
8
100
AcDbSymbolTable
0
ENDTAB
0
TABLE
2
LTYPE
5
5
100
AcDbSymbolTable
0
LTYPE
5
14
100
AcDbSymbolTableRecord
100
AcDbLinetypeTableRecord
2
BYBLOCK
70
0
0
LTYPE
5
15
100
AcDbSymbolTableRecord
100
AcDbLinetypeTableRecord
2
BYLAYER
70
0
0
ENDTAB
0
TABLE
2
LAYER
5
2
100
AcDbSymbolTable
70
2
0
LAYER
5
50
100
AcDbSymbolTableRecord
100
AcDbLayerTableRecord
2
0
70
0
6
CONTINUOUS
0
ENDTAB
0
TABLE
2
STYLE
5
3
100
AcDbSymbolTable
70
1
0
STYLE
5
11
100
AcDbSymbolTableRecord
100
AcDbTextStyleTableRecord
2
STANDARD
70
0
0
ENDTAB
0
TABLE
2
VIEW
5
6
100
AcDbSymbolTable
70
0
0
ENDTAB
0
TABLE
2
UCS
5
7
100
AcDbSymbolTable
70
0
0
ENDTAB
0
TABLE
2
APPID
5
9
100
AcDbSymbolTable
70
2
0
APPID
5
12
100
AcDbSymbolTableRecord
100
AcDbRegAppTableRecord
2
ACAD
70
0
0
ENDTAB
0
TABLE
2
DIMSTYLE
5
A
100
AcDbSymbolTable
70
1
0
ENDTAB
0
TABLE
2
BLOCK_RECORD
5
1
100
AcDbSymbolTable
70
1
0
BLOCK_RECORD
5
1F
100
AcDbSymbolTableRecord
100
AcDbBlockTableRecord
2
*MODEL_SPACE
0
BLOCK_RECORD
5
1B
100
AcDbSymbolTableRecord
100
AcDbBlockTableRecord
2
*PAPER_SPACE
0
ENDTAB
0
ENDSEC
0
SECTION
2
BLOCKS
0
BLOCK
5
20
100
AcDbEntity
100
AcDbBlockBegin
2
*MODEL_SPACE
0
ENDBLK
5
21
100
AcDbEntity
100
AcDbBlockEnd
0
BLOCK
5
1C
100
AcDbEntity
100
AcDbBlockBegin
2
*PAPER_SPACE
0
ENDBLK
5
1D
100
AcDbEntity
100
AcDbBlockEnd
0
ENDSEC
0
SECTION
2
ENTITIES
0
LINE
5
100
100
AcDbEntity
8
0
100
AcDbLine
10
-90.000000000000028
20
80
30
0
11
-140
21
130
31
0
0
LINE
5
101
100
AcDbEntity
8
0
100
AcDbLine
10
-119.13043478260867
20
80
30
0
11
-90.000000000000028
21
80
31
0
0
LINE
5
102
100
AcDbEntity
8
0
100
AcDbLine
10
-91.30434782608701
20
52.173913043478294
30
0
11
-119.13043478260867
21
80
31
0
0
LINE
5
103
100
AcDbEntity
8
0
100
AcDbLine
10
-140
20
130
30
0
11
-190
21
80
31
0
0
LINE
5
104
100
AcDbEntity
8
0
100
AcDbLine
10
-190
20
80
30
0
11
-160.45720569957356
21
79.999999999999986
31
0
0
LINE
5
105
100
AcDbEntity
8
0
100
AcDbLine
10
-160.45720569957356
20
79.999999999999986
30
0
11
-190.45720569957354
21
50.000000000000007
31
0
0
LINE
5
106
100
AcDbEntity
8
0
100
AcDbLine
10
-190.45720569957354
20
50.000000000000007
30
0
11
-170.00000000000011
21
50.000000000000007
31
0
0
LINE
5
107
100
AcDbEntity
8
0
100
AcDbLine
10
-170.00000000000011
20
50.000000000000007
30
0
11
-200
21
20
31
0
0
LINE
5
108
100
AcDbEntity
8
0
100
AcDbLine
10
-200
20
19.999999999999996
30
0
11
-150
21
20
31
0
0
LINE
5
109
100
AcDbEntity
8
0
100
AcDbLine
10
-150
20
20
30
0
11
-150
21
0
31
0
0
LINE
5
110
100
AcDbEntity
8
0
100
AcDbLine
10
-150
20
0
30
0
11
-130
21
0
31
0
0
LINE
5
111
100
AcDbEntity
8
0
100
AcDbLine
10
-130
20
0
30
0
11
-130
21
20
31
0
0
LINE
5
112
100
AcDbEntity
8
0
100
AcDbLine
10
-130
20
20
30
0
11
-100
21
20
31
0
0
LINE
5
113
100
AcDbEntity
8
0
100
AcDbLine
10
-100
20
20
30
0
11
-80
21
20
31
0
0
LINE
5
114
100
AcDbEntity
8
0
100
AcDbLine
10
-80
20
20
30
0
11
-112.17391304347827
21
52.173913043478272
31
0
0
LINE
5
115
100
AcDbEntity
8
0
100
AcDbLine
10
-91.30434782608701
20
52.173913043478294
30
0
11
-112.17391304347827
21
52.173913043478272
31
0
0
LINE
5
116
100
AcDbEntity
8
0
100
AcDbLine
10
-29.883723538954847
20
21.172722238896135
30
0
11
-9.8837235389548468
21
21.172722238896135
31
0
0
LINE
5
117
100
AcDbEntity
8
0
100
AcDbLine
10
-9.8837235389548468
20
18.722722238896132
30
0
11
-29.743626933638339
21
18.722722238896132
31
0
0
LINE
5
118
100
AcDbEntity
8
0
100
AcDbLine
10
-9.8837235389548468
20
21.172722238896135
30
0
11
-9.8837235389548468
21
18.722722238896132
31
0
0
LINE
5
119
100
AcDbEntity
8
0
100
AcDbLine
10
-29.743626933638339
20
18.722722238896132
30
0
11
-29.883723538954847
21
21.172722238896135
31
0
0
LINE
5
120
100
AcDbEntity
8
0
100
AcDbLine
10
10
20
10
30
0
11
20
21
10
31
0
0
LINE
5
121
100
AcDbEntity
8
0
100
AcDbLine
10
20
20
30
30
0
11
10
21
30
31
0
0
LINE
5
122
100
AcDbEntity
8
0
100
AcDbLine
10
20
20
10
30
0
11
20
21
30
31
0
0
LINE
5
123
100
AcDbEntity
8
0
100
AcDbLine
10
10
20
30
30
0
11
10
21
50
31
0
0
LINE
5
124
100
AcDbEntity
8
0
100
AcDbLine
10
10
20
50
30
0
11
-10
21
50
31
0
0
LINE
5
125
100
AcDbEntity
8
0
100
AcDbLine
10
-10
20
50
30
0
11
-10
21
60
31
0
0
LINE
5
126
100
AcDbEntity
8
0
100
AcDbLine
10
-10
20
60
30
0
11
-30
21
60
31
0
0
LINE
5
127
100
AcDbEntity
8
0
100
AcDbLine
10
-30
20
60
30
0
11
-30
21
50
31
0
0
LINE
5
128
100
AcDbEntity
8
0
100
AcDbLine
10
-30
20
50
30
0
11
-50
21
50
31
0
0
LINE
5
129
100
AcDbEntity
8
0
100
AcDbLine
10
-50
20
50
30
0
11
-50
21
30
31
0
0
LINE
5
130
100
AcDbEntity
8
0
100
AcDbLine
10
-50
20
30
30
0
11
-60
21
30
31
0
0
LINE
5
131
100
AcDbEntity
8
0
100
AcDbLine
10
-60
20
30
30
0
11
-60
21
10
31
0
0
LINE
5
132
100
AcDbEntity
8
0
100
AcDbLine
10
-60
20
10
30
0
11
-50
21
10
31
0
0
LINE
5
133
100
AcDbEntity
8
0
100
AcDbLine
10
-50
20
10
30
0
11
-50
21
-10
31
0
0
LINE
5
134
100
AcDbEntity
8
0
100
AcDbLine
10
-50
20
-10
30
0
11
-30
21
-10
31
0
0
LINE
5
135
100
AcDbEntity
8
0
100
AcDbLine
10
-30
20
-10
30
0
11
-30
21
-20
31
0
0
LINE
5
136
100
AcDbEntity
8
0
100
AcDbLine
10
-30
20
-20
30
0
11
-10
21
-20
31
0
0
LINE
5
137
100
AcDbEntity
8
0
100
AcDbLine
10
-10
20
-20
30
0
11
-10
21
-10
31
0
0
LINE
5
138
100
AcDbEntity
8
0
100
AcDbLine
10
-10
20
-10
30
0
11
10
21
-10
31
0
0
LINE
5
139
100
AcDbEntity
8
0
100
AcDbLine
10
10
20
-10
30
0
11
10
21
10
31
0
0
ENDSEC
0
SECTION
2
OBJECTS
0
DICTIONARY
5
C
100
AcDbDictionary
3
ACAD_GROUP
350
D
3
ACAD_MLINESTYLE
350
17
0
DICTIONARY
5
D
100
AcDbDictionary
0
DICTIONARY
5
1A
330
C
100
AcDbDictionary
0
DICTIONARY
5
17
100
AcDbDictionary
0
ENDSEC
0
EOF
